#define icon_width 50
#define icon_height 28
static uint8_t icon_bits[] = {
 0x00,0x00,0x00,0x00,0x00,0x00,0xfc,0x00,0x00,0x00,0x00,0x00,
 0x00,0xfc,0x00,0x00,0xe0,0x1f,0x00,0x00,0xfc,0x00,0x00,0x10,
 0x20,0x00,0x00,0xfc,0x00,0x00,0x08,0x40,0x00,0x00,0xfc,0x00,
 0x00,0x08,0x40,0x00,0x00,0xfc,0x00,0x00,0x08,0x40,0x00,0x00,
 0xfc,0x00,0x00,0x08,0x40,0x00,0x00,0xfc,0x00,0x00,0x08,0x40,
 0x00,0x00,0xfc,0x00,0x00,0x08,0x40,0x00,0x00,0xfc,0x00,0x00,
 0x08,0x40,0x00,0x00,0xfc,0x00,0x80,0xff,0xff,0x07,0x00,0xfc,
 0x00,0x80,0x00,0x00,0x04,0x00,0xfc,0x00,0x80,0x00,0x00,0x04,
 0x00,0xfc,0x00,0x80,0x00,0x00,0x04,0x00,0xfc,0x00,0x80,0x80,
 0x07,0x04,0x00,0xfc,0x00,0x80,0x80,0x07,0x04,0x00,0xfc,0x00,
 0x80,0x80,0x07,0x04,0x00,0xfc,0x00,0x80,0x00,0x03,0x04,0x00,
 0xfc,0x00,0x80,0x00,0x03,0x04,0x00,0xfc,0x00,0x80,0x00,0x03,
 0x04,0x00,0xfc,0x00,0x80,0x00,0x03,0x04,0x00,0xfc,0x00,0x80,
 0x00,0x03,0x04,0x00,0xfc,0x00,0x80,0x00,0x03,0x04,0x00,0xfc,
 0x00,0x80,0x00,0x00,0x04,0x00,0xfc,0x00,0x80,0x00,0x00,0x04,
 0x00,0xfc,0x00,0x80,0xff,0xff,0x07,0x00,0xfc,0x00,0x00,0x00,
 0x00,0x00,0x00,0xfc};